<svg xmlns="http://www.w3.org/2000/svg" width="18" height="15" viewBox="0 0 18 15"><g><g><path fill="#fff" d="M17.698.224a7.448 7.448 0 0 1-2.351.898A3.702 3.702 0 0 0 9.04 4.496 10.506 10.506 0 0 1 1.411.63a3.676 3.676 0 0 0-.5 1.86A3.7 3.7 0 0 0 2.558 5.57a3.697 3.697 0 0 1-1.676-.465v.046a3.706 3.706 0 0 0 2.968 3.63 3.742 3.742 0 0 1-1.672.063 3.707 3.707 0 0 0 3.456 2.571 7.427 7.427 0 0 1-4.595 1.583c-.3 0-.594-.017-.884-.05A10.482 10.482 0 0 0 5.83 14.61c6.807 0 10.53-5.64 10.53-10.53l-.013-.48a7.444 7.444 0 0 0 1.85-1.913 7.394 7.394 0 0 1-2.125.583A3.721 3.721 0 0 0 17.698.224z"/></g></g></svg>