<svg xmlns="http://www.w3.org/2000/svg" width="18" height="17" viewBox="0 0 18 17"><g><g><path fill="#fff" d="M17.783 10.405v6.611H13.95v-6.168c0-1.55-.554-2.607-1.941-2.607-1.06 0-1.69.713-1.967 1.402-.1.247-.127.59-.127.935v6.438H6.082s.051-10.446 0-11.529h3.833v1.634l-.025.038h.025V7.12c.51-.784 1.419-1.905 3.455-1.905 2.522 0 4.413 1.648 4.413 5.19zM4.215 1.921c0 1.107-.832 1.993-2.169 1.993h-.025c-1.286 0-2.119-.886-2.119-1.993C-.098.791.76-.07 2.072-.07c1.311 0 2.117.86 2.143 1.991zM.13 5.487h3.832v11.529H.13z"/></g></g></svg>