<svg xmlns="http://www.w3.org/2000/svg" width="14" height="17" viewBox="0 0 14 17"><g><g><path fill="#fff" d="M12.243 1.658C11.08.544 9.474-.07 7.718-.07c-2.684 0-4.335 1.1-5.247 2.022C1.347 3.09.703 4.6.703 6.095c0 1.877.785 3.318 2.1 3.855a.698.698 0 0 0 .265.054c.277 0 .497-.182.573-.473.045-.167.148-.58.192-.758.096-.353.019-.523-.19-.77-.38-.45-.558-.982-.558-1.674 0-2.058 1.533-4.244 4.373-4.244 2.253 0 3.653 1.28 3.653 3.341 0 1.301-.28 2.506-.79 3.392-.353.616-.975 1.351-1.93 1.351-.413 0-.784-.17-1.018-.465-.22-.28-.294-.64-.205-1.017.1-.425.238-.869.37-1.297.242-.783.47-1.523.47-2.113 0-1.009-.62-1.687-1.543-1.687-1.174 0-2.094 1.192-2.094 2.713 0 .746.199 1.304.289 1.519-.148.626-1.027 4.35-1.194 5.051-.096.41-.676 3.648.284 3.906 1.08.29 2.045-2.863 2.143-3.22.08-.29.358-1.385.53-2.058.52.502 1.36.84 2.176.84 1.54 0 2.924-.692 3.898-1.95.945-1.219 1.465-2.919 1.465-4.785 0-1.46-.626-2.898-1.72-3.948z"/></g></g></svg>