<svg xmlns="http://www.w3.org/2000/svg" width="18" height="19" viewBox="0 0 18 19"><g><g><path fill="#fff" d="M17.954 2.925v13.058c0 .617-.22 1.147-.663 1.59a2.17 2.17 0 0 1-1.59.663H2.645a2.17 2.17 0 0 1-1.59-.664 2.168 2.168 0 0 1-.663-1.589V2.925c0-.617.221-1.147.663-1.59a2.169 2.169 0 0 1 1.59-.662h13.058c.617 0 1.147.22 1.59.663.441.442.662.972.662 1.589zM5.662 9.42c0 .945.345 1.751 1.035 2.418.69.667 1.52 1 2.487 1 .976 0 1.809-.333 2.499-1 .69-.667 1.034-1.473 1.034-2.418 0-.945-.344-1.752-1.034-2.419-.69-.667-1.523-1-2.499-1a3.45 3.45 0 0 0-2.487 1c-.69.667-1.035 1.474-1.035 2.419zm10.303 6.094v-7.41h-1.544c.153.481.23.98.23 1.499 0 .96-.245 1.846-.733 2.658a5.338 5.338 0 0 1-1.99 1.927 5.497 5.497 0 0 1-2.744.709c-1.501 0-2.786-.517-3.853-1.55-1.067-1.032-1.6-2.28-1.6-3.745 0-.518.075-1.017.228-1.497H2.347v7.41c0 .197.066.363.2.497.133.133.299.2.497.2h12.223c.19 0 .355-.067.492-.2a.666.666 0 0 0 .206-.498zm0-12.097a.767.767 0 0 0-.229-.555.753.753 0 0 0-.56-.234h-1.99a.753.753 0 0 0-.56.234.768.768 0 0 0-.229.555v1.886c0 .221.077.408.23.56.151.153.338.23.56.23h1.989a.762.762 0 0 0 .56-.23.761.761 0 0 0 .229-.56z"/></g></g></svg>